<svg width="396" height="49" viewBox="0 0 396 49" fill="none" xmlns="http://www.w3.org/2000/svg">
    <g clip-path="url(#clip0_0_3)">
        <g clip-path="url(#clip1_0_3)">
            <path d="M108.771 3.9552C108.771 1.7708 107.793 0 106.586 0C105.38 0 104.402 1.7708 104.402 3.9552V44.7306C104.402 46.915 105.38 48.6858 106.586 48.6858C107.793 48.6858 108.771 46.915 108.771 44.7306V3.9552Z"
                  fill="#C56E33"/>
            <g clip-path="url(#clip2_0_3)">
                <g clip-path="url(#clip3_0_3)">
                    <g clip-path="url(#clip4_0_3)">
                        <g clip-path="url(#clip5_0_3)">
                            <path d="M129.186 36.3338H120.217V34.751C121.176 34.751 121.912 34.4952 122.423 33.9836C122.935 33.472 123.36 32.7685 123.699 31.8732C124.032 30.9779 124.422 29.9387 124.869 28.7555L134.75 1.84779H135.901L146.597 29.1393C146.853 29.8108 147.141 30.6741 147.46 31.7293C147.78 32.7845 147.908 33.6798 147.844 34.4153C148.388 34.3833 148.931 34.3513 149.475 34.3194C150.018 34.2874 150.562 34.2554 151.106 34.2234V36.3338H140.122V34.751C141.337 34.7191 142.136 34.4473 142.52 33.9356C142.904 33.424 143.048 32.8165 142.952 32.113C142.856 31.4095 142.696 30.77 142.472 30.1945L140.793 25.6859L128.323 25.9736L126.644 31.1058C126.42 31.8732 126.222 32.4807 126.049 32.9284C125.87 33.3761 125.669 33.8717 125.445 34.4153C126.084 34.3833 126.718 34.3513 127.344 34.3194C127.965 34.2874 128.579 34.2554 129.186 34.2234V36.3338ZM132.448 14.2704L129.042 23.9112H140.122L136.716 14.7501C136.365 13.7588 136.007 12.774 135.642 11.7955C135.271 10.8234 134.91 9.84178 134.558 8.85053H134.462C134.142 9.74585 133.816 10.6412 133.484 11.5365C133.145 12.4318 132.799 13.3431 132.448 14.2704ZM152.64 36.3338V34.8949C153.632 34.8949 154.319 34.6487 154.703 34.1563C155.087 33.6575 155.31 32.97 155.374 32.0938C155.438 31.2113 155.47 30.1945 155.47 29.0433V18.1076C155.47 17.5959 155.477 17.0843 155.489 16.5727C155.509 16.0611 155.566 15.5335 155.662 14.9899C155.087 15.0219 154.517 15.0443 153.955 15.0571C153.398 15.0762 152.832 15.1018 152.257 15.1338V13.1673H153.744C155.119 13.1673 156.068 13.0298 156.593 12.7548C157.123 12.4862 157.565 12.192 157.916 11.8723H159.307C159.371 12.3839 159.419 13.0138 159.451 13.762C159.483 14.5167 159.515 15.4695 159.547 16.6207C160.027 15.8213 160.682 15.0379 161.514 14.2704C162.345 13.503 163.279 12.8635 164.315 12.3519C165.357 11.8403 166.454 11.5845 167.605 11.5845C168.5 11.5845 169.284 11.8243 169.955 12.3039C170.627 12.7836 170.963 13.551 170.963 14.6062C170.963 14.862 170.883 15.1722 170.723 15.5367C170.563 15.9076 170.307 16.2274 169.955 16.496C169.604 16.771 169.14 16.9085 168.564 16.9085C167.861 16.8765 167.301 16.5951 166.886 16.0643C166.47 15.5399 166.31 14.926 166.406 14.2225C165.607 14.1905 164.782 14.3984 163.931 14.846C163.087 15.2937 162.297 15.9076 161.562 16.6878C160.826 17.4744 160.171 18.3953 159.595 19.4505L159.643 31.2497C159.643 31.8892 159.634 32.4552 159.614 32.9476C159.602 33.4464 159.547 33.9676 159.451 34.5112C159.963 34.4792 160.465 34.4537 160.957 34.4345C161.456 34.4217 161.961 34.3993 162.473 34.3673V36.3338H152.64ZM184.776 37.1013C182.634 37.1013 180.658 36.612 178.848 35.6336C177.044 34.6615 175.606 33.2546 174.531 31.4127C173.463 29.5773 172.929 27.3646 172.929 24.7745C172.929 23.1118 173.233 21.497 173.84 19.9302C174.448 18.3634 175.302 16.9468 176.402 15.6806C177.508 14.4207 178.829 13.4231 180.364 12.6876C181.898 11.9522 183.593 11.5845 185.448 11.5845C187.238 11.5845 188.796 11.8563 190.119 12.3999C191.45 12.9434 192.482 13.6629 193.218 14.5582C193.953 15.4536 194.321 16.4288 194.321 17.484C194.321 18.1875 194.126 18.7854 193.736 19.2779C193.359 19.7767 192.799 20.0261 192.057 20.0261C191.258 20.0581 190.692 19.8087 190.359 19.2779C190.027 18.7535 189.86 18.2834 189.86 17.8677C189.86 17.548 189.908 17.2186 190.004 16.8797C190.094 16.5471 190.286 16.237 190.58 15.9492C190.324 15.1818 189.876 14.6126 189.237 14.2417C188.597 13.8771 187.932 13.6373 187.242 13.5222C186.557 13.4135 185.991 13.3591 185.544 13.3591C183.369 13.3591 181.537 14.2289 180.047 15.9684C178.563 17.7143 177.821 20.2499 177.821 23.5754C177.821 25.7178 178.164 27.6204 178.848 29.2831C179.539 30.9459 180.507 32.2473 181.754 33.1874C183.002 34.1339 184.437 34.6071 186.062 34.6071C187.571 34.6071 189.01 34.2074 190.378 33.408C191.76 32.6087 192.834 31.6334 193.602 30.4822L194.849 31.4415C194.017 32.7845 193.016 33.8717 191.846 34.7031C190.682 35.5344 189.483 36.142 188.249 36.5257C187.021 36.9094 185.863 37.1013 184.776 37.1013ZM213.977 36.3338V34.8949C214.968 34.8949 215.655 34.6487 216.039 34.1563C216.423 33.6575 216.647 32.97 216.711 32.0938C216.775 31.2113 216.807 30.1945 216.807 29.0433V22.3284C216.807 19.5785 216.368 17.516 215.492 16.141C214.61 14.7661 213.225 14.0946 211.339 14.1266C210.156 14.1585 208.998 14.4463 207.866 14.9899C206.728 15.5335 205.807 16.237 205.103 17.1003V31.2497C205.103 31.8892 205.087 32.4552 205.055 32.9476C205.023 33.4464 204.959 33.9676 204.864 34.5112C205.375 34.4792 205.88 34.4537 206.379 34.4345C206.872 34.4217 207.374 34.3993 207.885 34.3673V36.3338H198.101V34.8949C199.092 34.8949 199.779 34.6487 200.163 34.1563C200.547 33.6575 200.78 32.97 200.863 32.0938C200.94 31.2113 200.978 30.1945 200.978 29.0433V6.3564C200.978 5.84479 200.988 5.35875 201.007 4.8983C201.02 4.43145 201.058 3.87827 201.122 3.23875C200.547 3.27072 199.981 3.3027 199.424 3.33467C198.862 3.36665 198.292 3.39863 197.717 3.4306V1.41612C199.124 1.41612 200.221 1.35217 201.007 1.22427C201.787 1.09636 202.379 0.936482 202.782 0.744626C203.178 0.55277 203.489 0.344925 203.712 0.121094H205.103V14.7501C205.807 14.1425 206.6 13.6053 207.482 13.1385C208.358 12.678 209.27 12.3039 210.216 12.0161C211.156 11.7284 212.074 11.5845 212.969 11.5845C215.751 11.5845 217.759 12.4542 218.994 14.1937C220.222 15.9396 220.851 18.6511 220.883 22.3284L220.931 31.2497C220.931 31.8892 220.925 32.4552 220.912 32.9476C220.893 33.4464 220.835 33.9676 220.74 34.5112C221.251 34.4792 221.756 34.4537 222.255 34.4345C222.748 34.4217 223.25 34.3993 223.761 34.3673V36.3338H213.977ZM238.918 37.1013C236.712 37.1013 234.723 36.5801 232.951 35.5376C231.173 34.5016 229.773 33.0307 228.75 31.125C227.726 29.2256 227.215 26.9809 227.215 24.3908C227.215 22.1525 227.72 20.0581 228.73 18.1076C229.734 16.157 231.148 14.5806 232.97 13.3783C234.793 12.1824 236.903 11.5845 239.302 11.5845C240.645 11.5845 241.901 11.7987 243.072 12.2272C244.235 12.6621 245.265 13.3176 246.16 14.1937C247.056 15.0762 247.759 16.1794 248.271 17.5032C248.782 18.8334 249.038 20.3938 249.038 22.1845L232.155 22.4723C232.155 24.9024 232.42 27.0352 232.951 28.8707C233.476 30.7125 234.329 32.1354 235.512 33.1394C236.696 34.1499 238.214 34.6551 240.069 34.6551C241.06 34.6551 242.077 34.4792 243.12 34.1275C244.156 33.7758 245.121 33.2961 246.017 32.6886C246.912 32.081 247.631 31.4095 248.175 30.6741L249.326 31.6334C248.463 32.9764 247.423 34.0476 246.208 34.847C244.993 35.6464 243.746 36.2219 242.467 36.5737C241.188 36.9254 240.005 37.1013 238.918 37.1013ZM232.299 20.4578H244.53C244.53 19.3067 244.363 18.1939 244.031 17.1195C243.692 16.0515 243.139 15.1722 242.371 14.4815C241.604 13.7972 240.597 13.4551 239.35 13.4551C237.495 13.4551 235.954 14.005 234.726 15.105C233.492 16.2114 232.683 17.9956 232.299 20.4578ZM264.962 37.1013C262.724 37.1013 260.694 36.5801 258.871 35.5376C257.048 34.5016 255.6 33.0627 254.525 31.2209C253.457 29.3855 252.923 27.2847 252.923 24.9184C252.923 22.3923 253.451 20.122 254.506 18.1076C255.561 16.0931 257 14.5007 258.823 13.3304C260.646 12.1664 262.692 11.5845 264.962 11.5845C267.201 11.5845 269.231 12.1185 271.054 13.1865C272.876 14.2609 274.331 15.7094 275.418 17.532C276.506 19.3546 277.049 21.4331 277.049 23.7673C277.049 26.2294 276.512 28.4742 275.438 30.5014C274.37 32.5351 272.924 34.1435 271.102 35.3266C269.279 36.5097 267.233 37.1013 264.962 37.1013ZM265.346 35.1827C267.041 35.1827 268.384 34.7031 269.375 33.7438C270.366 32.7845 271.076 31.5375 271.505 30.0026C271.939 28.4678 272.157 26.853 272.157 25.1583C272.157 23.7193 272.019 22.306 271.744 20.9182C271.476 19.5241 271.054 18.2578 270.478 17.1195C269.903 15.9876 269.158 15.0858 268.243 14.4143C267.335 13.7428 266.241 13.4071 264.962 13.4071C263.3 13.4071 261.941 13.8867 260.885 14.846C259.83 15.8053 259.053 17.0524 258.554 18.5872C258.062 20.122 257.816 21.7688 257.816 23.5275C257.816 25.51 258.087 27.387 258.631 29.1584C259.175 30.9363 260.006 32.3848 261.125 33.504C262.244 34.6231 263.651 35.1827 265.346 35.1827ZM290.911 36.3338H281.126V34.8949C282.117 34.8949 282.805 34.6487 283.189 34.1563C283.572 33.6575 283.796 32.97 283.86 32.0938C283.924 31.2113 283.956 30.1945 283.956 29.0433V18.1076C283.956 17.5959 283.962 17.0843 283.975 16.5727C283.994 16.0611 284.052 15.5335 284.148 14.9899C283.572 15.0219 283.003 15.0539 282.44 15.0858C281.884 15.1178 281.318 15.1498 280.742 15.1818V13.1673C282.149 13.1673 283.211 13.1033 283.927 12.9754C284.65 12.8475 285.187 12.6876 285.539 12.4958C285.891 12.3039 286.178 12.0961 286.402 11.8723H287.793C287.857 12.192 287.895 12.5597 287.908 12.9754C287.927 13.3911 287.953 13.8707 287.985 14.4143C288.944 13.583 290.047 12.9019 291.294 12.3711C292.542 11.8467 293.789 11.5845 295.036 11.5845C296.634 11.5845 297.977 11.8723 299.065 12.4478C300.152 13.0234 300.999 13.8068 301.607 14.798C302.694 13.9027 303.947 13.1417 305.367 12.515C306.793 11.8946 308.194 11.5845 309.569 11.5845C312.351 11.5845 314.397 12.4222 315.708 14.0978C317.019 15.7797 317.643 18.5232 317.579 22.3284L317.531 31.2497C317.531 31.8892 317.521 32.4552 317.502 32.9476C317.489 33.4464 317.435 33.9676 317.339 34.5112C317.85 34.4792 318.353 34.4537 318.845 34.4345C319.344 34.4217 319.849 34.3993 320.361 34.3673V36.3338H310.576V34.8949C311.567 34.8949 312.255 34.6487 312.638 34.1563C313.022 33.6575 313.246 32.97 313.31 32.0938C313.374 31.2113 313.406 30.1945 313.406 29.0433V22.3284C313.406 19.5785 312.965 17.516 312.082 16.141C311.206 14.7661 309.825 14.0946 307.938 14.1266C306.947 14.1266 305.955 14.3504 304.964 14.798C303.973 15.2457 303.11 15.8053 302.374 16.4768C302.534 16.9884 302.652 17.5384 302.729 18.1267C302.812 18.7215 302.854 19.3386 302.854 19.9782C302.822 21.8328 302.806 23.7033 302.806 25.5899C302.806 27.4765 302.79 29.3631 302.758 31.2497C302.758 31.8892 302.748 32.4552 302.729 32.9476C302.716 33.4464 302.662 33.9676 302.566 34.5112C303.078 34.4792 303.58 34.4537 304.072 34.4345C304.571 34.4217 305.076 34.3993 305.588 34.3673V36.3338H295.803V34.8949C296.794 34.8949 297.472 34.6487 297.837 34.1563C298.208 33.6575 298.432 32.97 298.508 32.0938C298.591 31.2113 298.633 30.1945 298.633 29.0433L298.681 22.3284C298.713 19.5785 298.313 17.5 297.482 16.0931C296.65 14.6861 295.291 13.9987 293.405 14.0306C292.414 14.0306 291.438 14.2449 290.479 14.6733C289.52 15.1082 288.704 15.6614 288.033 16.3329C288.033 16.7166 288.039 17.1227 288.052 17.5512C288.071 17.9861 288.081 18.4433 288.081 18.9229V31.2497C288.081 31.8892 288.071 32.4552 288.052 32.9476C288.039 33.4464 287.985 33.9676 287.889 34.5112C288.401 34.4792 288.903 34.4537 289.395 34.4345C289.894 34.4217 290.399 34.3993 290.911 34.3673V36.3338ZM345.436 36.3338H338.577C338.481 35.7903 338.417 35.3106 338.385 34.8949C338.353 34.4792 338.305 34.0476 338.242 33.5999C337.154 34.6871 335.981 35.5408 334.721 36.1612C333.455 36.7879 332.118 37.1013 330.711 37.1013C328.281 37.1013 326.474 36.5481 325.291 35.4417C324.108 34.3417 323.517 32.9924 323.517 31.3936C323.517 29.9227 323.974 28.65 324.888 27.5756C325.797 26.5076 326.98 25.6283 328.438 24.9376C329.889 24.2533 331.472 23.7417 333.186 23.4028C334.894 23.0702 336.547 22.9199 338.146 22.9519V19.9782C338.146 18.859 338.05 17.8038 337.858 16.8125C337.666 15.8213 337.25 15.0059 336.611 14.3664C335.971 13.7269 334.948 13.3911 333.541 13.3591C332.614 13.3272 331.664 13.503 330.692 13.8867C329.714 14.2704 329.001 14.926 328.553 15.8533C328.809 16.1091 328.978 16.4032 329.061 16.7358C329.138 17.0747 329.176 17.3881 329.176 17.6759C329.176 18.0596 329.016 18.5009 328.697 18.9997C328.377 19.4921 327.817 19.7223 327.018 19.6904C326.346 19.6904 325.835 19.4601 325.483 18.9997C325.131 18.5328 324.956 17.9797 324.956 17.3401C324.956 16.253 325.365 15.2777 326.183 14.4143C326.996 13.551 328.121 12.8635 329.56 12.3519C330.999 11.8403 332.63 11.5845 334.452 11.5845C337.138 11.5845 339.121 12.2943 340.4 13.7141C341.679 15.1402 342.302 17.3881 342.271 20.4578C342.271 21.6409 342.271 22.8304 342.271 24.0263C342.271 25.2286 342.264 26.4277 342.251 27.6236C342.232 28.8259 342.223 30.0346 342.223 31.2497C342.223 31.7613 342.207 32.2729 342.175 32.7845C342.143 33.2961 342.095 33.8717 342.031 34.5112C342.606 34.4792 343.175 34.4473 343.738 34.4153C344.295 34.3833 344.861 34.3513 345.436 34.3194V36.3338ZM338.146 24.5827C337.058 24.6147 335.917 24.749 334.721 24.9856C333.519 25.2286 332.416 25.5899 331.411 26.0696C330.401 26.5492 329.586 27.1823 328.965 27.9689C328.339 28.7492 328.041 29.6988 328.073 30.818C328.137 32.0011 328.53 32.8868 329.253 33.4752C329.969 34.07 330.823 34.3673 331.814 34.3673C333.125 34.3673 334.27 34.1179 335.249 33.6191C336.221 33.1267 337.186 32.4328 338.146 31.5375C338.114 31.1857 338.098 30.802 338.098 30.3863C338.098 29.9706 338.098 29.539 338.098 29.0913C338.098 28.9314 338.107 28.4198 338.126 27.5564C338.139 26.6931 338.146 25.7018 338.146 24.5827ZM358.099 48.5646H348.314V47.1257C349.305 47.1257 349.993 46.8795 350.376 46.3871C350.76 45.8883 350.984 45.2008 351.048 44.3246C351.112 43.4421 351.144 42.4253 351.144 41.2741L351.24 18.1076C351.24 17.5959 351.249 17.0843 351.269 16.5727C351.281 16.0611 351.336 15.5335 351.432 14.9899C350.856 15.0219 350.29 15.0539 349.734 15.0858C349.171 15.1178 348.602 15.1498 348.026 15.1818V13.1673C349.433 13.1673 350.498 13.1033 351.221 12.9754C351.937 12.8475 352.464 12.6876 352.803 12.4958C353.136 12.3039 353.414 12.0961 353.638 11.8723H355.077C355.109 12.192 355.141 12.5661 355.173 12.9946C355.205 13.4295 355.237 13.9187 355.269 14.4623C356.228 13.599 357.373 12.9019 358.703 12.3711C360.027 11.8467 361.36 11.5845 362.703 11.5845C364.558 11.5845 366.284 12.0641 367.883 13.0234C369.482 13.9827 370.777 15.348 371.768 17.1195C372.76 18.8974 373.255 21.0174 373.255 23.4795C373.255 26.1975 372.689 28.5797 371.557 30.6261C370.419 32.6726 368.922 34.2618 367.068 35.3938C365.213 36.5321 363.199 37.1013 361.024 37.1013C359.905 37.1013 358.876 36.967 357.936 36.6984C356.989 36.4234 356.1 36.0301 355.269 35.5185V43.4805C355.269 44.12 355.262 44.686 355.25 45.1784C355.23 45.6772 355.173 46.1984 355.077 46.742C355.589 46.71 356.094 46.6877 356.593 46.6749C357.085 46.6557 357.587 46.6301 358.099 46.5981V48.5646ZM360.928 35.1827C362.463 35.1827 363.784 34.7095 364.89 33.763C365.99 32.8229 366.838 31.5279 367.432 29.8779C368.021 28.2343 368.315 26.3574 368.315 24.2469C368.315 22.5202 368.069 20.8639 367.576 19.2779C367.077 17.6983 366.294 16.4128 365.226 15.4216C364.152 14.4303 362.735 13.9347 360.976 13.9347C359.889 13.9347 358.844 14.1969 357.84 14.7213C356.829 15.2521 355.988 15.8852 355.317 16.6207C355.317 16.7486 355.326 16.9308 355.345 17.1675C355.358 17.4105 355.365 17.8262 355.365 18.4145C355.365 19.0093 355.365 19.8886 355.365 21.0525C355.365 22.2229 355.358 23.7993 355.345 25.7818C355.326 27.7643 355.317 30.2744 355.317 33.3121C356.116 33.9197 356.989 34.3833 357.936 34.7031C358.876 35.0228 359.873 35.1827 360.928 35.1827ZM387.213 37.1013C385.614 37.1013 384.191 36.887 382.944 36.4586C381.697 36.0237 380.674 35.5344 379.874 34.9909L380.066 36.6696H378.052L377.764 28.4198H379.251C379.315 29.7308 379.682 30.9043 380.354 31.9403C381.025 32.9828 381.889 33.7918 382.944 34.3673C383.999 34.9429 385.134 35.2307 386.349 35.2307C387.181 35.2307 387.996 35.0932 388.796 34.8182C389.595 34.5496 390.266 34.1339 390.81 33.5711C391.354 33.0147 391.625 32.3049 391.625 31.4415C391.625 30.5462 391.36 29.8012 390.829 29.2064C390.305 28.618 389.611 28.1 388.748 27.6524C387.884 27.2047 386.957 26.789 385.966 26.4053C385.006 26.0216 384.047 25.6219 383.088 25.2062C382.129 24.7905 381.24 24.2949 380.421 23.7193C379.609 23.1438 378.963 22.4403 378.483 21.6089C378.004 20.7775 377.764 19.7543 377.764 18.5392C377.764 17.8677 377.892 17.1323 378.147 16.3329C378.403 15.5335 378.835 14.7725 379.443 14.0498C380.05 13.3336 380.881 12.742 381.937 12.2751C382.992 11.8147 384.335 11.5845 385.966 11.5845C386.829 11.5845 387.788 11.7284 388.843 12.0161C389.899 12.3039 390.922 12.8475 391.913 13.6469L391.817 11.8243H393.832V20.218H392.297C392.233 19.0988 391.977 18.018 391.529 16.9756C391.082 15.9396 390.426 15.0762 389.563 14.3856C388.7 13.7013 387.58 13.3591 386.205 13.3591C384.735 13.3591 383.583 13.7269 382.752 14.4623C381.921 15.1978 381.505 16.0451 381.505 17.0044C381.505 17.9956 381.815 18.8206 382.435 19.4793C383.062 20.1316 383.871 20.6976 384.862 21.1772C385.854 21.6569 386.909 22.1205 388.028 22.5682C389.243 23.0798 390.426 23.6394 391.577 24.2469C392.729 24.8545 393.672 25.6123 394.407 26.5204C395.143 27.4349 395.51 28.6117 395.51 30.0506C395.51 31.6494 395.101 32.9764 394.283 34.0316C393.47 35.0868 392.431 35.8638 391.165 36.3626C389.905 36.8551 388.588 37.1013 387.213 37.1013Z"
                                  fill="#C56E33"/>
                        </g>
                    </g>
                </g>
            </g>
            <g clip-path="url(#clip6_0_3)">
                <g clip-path="url(#clip7_0_3)">
                    <path d="M30.5039 28.9916L27.5569 26.8041L23.182 26.3653L22.5312 27.427L21.6452 27.1332L21.2111 25.4933L19.9012 25.4022L20.446 23.8506L19.3536 23.7409L18.2585 24.6204L17.4934 23.5215L18.1497 21.665L21.1042 21.2262L21.6452 22.7564L22.4159 22.6495V21.2262L24.4918 18.3833L27.1163 16.9609L30.5039 15.4344L28.098 10.0722L27.0056 10.7285L26.1345 8.3244L24.0521 8.43316L23.5138 12.6984L22.7459 12.8091L19.5712 9.41767L20.2275 7.66713L23.5138 7.01265V2.85522L15.3068 3.73188L11.0471 1.21623L9.07718 3.07462L3.71491 0.121094L0.766038 1.87071L1.85839 3.51434H0.65355L0.32724 4.71546L1.96623 4.93393L0.32724 6.24568L0.872019 8.10406L2.2944 8.43316L0 10.2925L3.608 8.5438L5.57423 7.44587L8.74622 9.41767L11.2628 13.682V17.5094L12.794 20.3532L15.3068 24.2894L18.371 25.379L19.6827 26.0372L21.2111 28.0053L22.2793 27.8398L21.1042 29.7577L22.0859 33.6901L24.1655 35.5476L21.6452 45.7227L22.5256 47.9092L25.0394 48.5646L23.5138 46.9229L25.586 42.9876L30.0698 39.1602L30.397 37.4106L32.5864 37.0806L34.7739 32.5987L30.9465 30.7422L30.5039 28.9916Z"
                          fill="#C56E33"/>
                    <path d="M82.7386 29.7604L82.5043 31.6179L80.9295 31.0462L81.2205 30.0403L79.4988 29.9008L77.2676 31.9795L74.9007 32.8367L75.4798 36.057L75.2614 36.6966L76.1269 37.1986L79.6363 36.3303L80.9936 37.1196L81.6398 36.7598L82.0702 38.0623L83.8589 38.5652L85.152 37.7741L85.8678 33.9123L83.9342 31.9795L82.7386 29.7604Z"
                          fill="#C56E33"/>
                    <path d="M74.0426 27.9671L75.9056 28.3241L76.7684 25.6737L76.2636 25.2404L73.7572 26.819L74.0426 27.9671Z"
                          fill="#C56E33"/>
                    <path d="M84.8619 29.9008L84.2205 28.5379L81.2828 27.1081L79.7776 27.2485L81.7104 29.2556L82.8204 29.3337L83.288 28.8959L84.8619 29.9008Z"
                          fill="#C56E33"/>
                    <path d="M83.288 10.9804H82.7897L82.7154 13.5593L81.4269 16.2823L79.7777 17.5038L79.7051 18.5757L82.7154 16.7852L82.8576 14.9222L83.8589 13.9907L83.0761 13.3464L83.5 11.8441L83.288 10.9804Z"
                          fill="#C56E33"/>
                    <path d="M91.0284 36.9941L91.245 39.0012L89.0231 41.0818L90.4585 41.2241L91.7433 39.2866L92.7483 37.9275L92.104 37.8587L91.0284 36.9941Z"
                          fill="#C56E33"/>
                    <path d="M43.1287 6.83694V8.92309L44.5762 8.28813L44.9843 7.64667L43.416 4.63086L42.4928 5.27139L42.5495 6.08113L41.6775 7.13071L41.6171 8.22957H42.6648L43.1287 6.83694Z"
                          fill="#C56E33"/>
                    <path d="M56.2369 31.4245L56.1783 33.7477L57.1117 34.1503L58.0376 31.3669L57.8033 30.2085L56.2369 31.4245Z"
                          fill="#C56E33"/>
                    <path d="M90.3841 6.68262L92.9658 5.24723L92.249 3.24288L73.2366 0.560822C73.2366 0.560822 61.7163 1.7796 55.363 2.44803L49.8585 1.43377L47.6506 2.65069L46.7822 4.79634L45.7355 5.61165L45.6778 7.40961L46.2589 7.75451L47.4758 7.06099L48.0615 8.91473L49.1017 8.5094L49.7999 6.65194L49.1017 5.89985L49.7423 4.50815L50.4907 3.57756L50.9499 3.65007L50.5213 4.7387L50.0314 5.08919L50.2099 5.53077L50.1764 5.60515L50.2406 5.61165L50.6673 6.65194L51.887 6.30704L52.3063 6.79883L50.9573 7.23669L51.2511 8.33927L50.3754 8.04364L49.7414 9.67054L47.4748 9.6129L47.0686 8.45269L46.548 9.14807L46.7228 9.90295L45.9084 9.96245L44.9229 11.2956L43.125 11.8757L43.5907 12.863L44.3391 14.0799L41.9648 13.9051L42.08 16.2283L43.9375 16.5184L45.1544 14.6014L46.8985 13.7304L47.6487 14.6014L48.6908 15.9978L49.4494 15.1221L47.9973 14.1403L47.9378 13.2107L48.6341 13.5574L49.7971 14.489L49.7395 15.4112L50.6078 16.5175L51.015 15.1211L51.4798 15.3554L52.1157 16.4589L54.0819 16.7861L53.7621 17.8608L53.023 18.3033L50.1746 17.5745L49.4578 18.5767L47.5966 17.3579L47.3084 16.1447L42.7234 16.9293L40.3565 19.7964L39.9242 23.6647L42.3654 26.0316L46.7376 25.7434L48.0243 29.7577L47.5269 32.0493L49.6019 37.0657L51.9688 36.6353L54.3311 32.1915L55.6205 31.1884L55.2654 28.1103L57.5588 26.0307L58.2756 23.5215L55.9803 24.5971L53.6375 19.2311L54.1163 19.1493L56.4126 23.6638L60.8573 21.0133L59.3475 19.868L58.2022 20.4406L57.4845 18.7189L57.9874 18.4354L58.9887 19.2925L62.434 19.9377L63.8619 21.6594L65.1532 24.8825L66.16 23.8822V22.6634L68.9518 20.7242L69.9549 22.8782L70.786 22.6681L70.958 24.8109L71.8198 26.3867L69.9558 25.4543L71.3196 27.387L72.8248 28.8243L76.4067 29.4676L74.473 28.6811L73.0349 28.1782L72.5366 25.8838L71.3875 24.5897L71.4312 23.2965L72.7513 24.6641L74.0407 23.5894L72.8257 21.797L73.3956 20.8655L76.0488 20.7223L77.2657 18.5032L76.4086 16.0703L77.4833 14.9231L78.2753 15.9978L78.5617 17.3579L79.4923 16.8605L79.1343 15.3535L79.9218 14.2073L81.2131 13.9944L82.7154 9.83602L81.4269 8.9045L83.2165 7.18278L85.5834 7.32501L87.5199 5.7511L89.0231 5.53356L86.5883 8.47407L86.659 11.052L88.5239 8.75855L88.4514 7.1084L90.3841 6.68262ZM55.31 15.2355L54.0382 14.8915L52.2933 15.1806L51.8879 14.4295L52.8148 12.8035L55.8334 14.3727L55.31 15.2355ZM57.4017 16.2274L57.6862 15.1221L57.0503 13.5007L58.8511 12.5153V13.3836L58.1529 13.6736L58.7376 14.5457L59.0203 16.3446L57.4017 16.2274Z"
                          fill="#C56E33"/>
                    <path d="M33.0354 2.2435L31.4206 1.80377L29.4255 3.93455L31.9923 10.616L33.2065 10.9144L33.305 8.74367L34.125 8.237L34.1724 7.4124L35.0184 5.82175L34.429 4.61413L33.0354 2.2435Z"
                          fill="#C56E33"/>
                </g>
            </g>
        </g>
    </g>
    <defs>
        <clipPath id="clip0_0_3">
            <rect width="395.52" height="48.6858" fill="white"/>
        </clipPath>
        <clipPath id="clip1_0_3">
            <rect width="395.52" height="48.6858" fill="white"/>
        </clipPath>
        <clipPath id="clip2_0_3">
            <rect width="275.313" height="48.4435" fill="white" transform="translate(120.207 0.121094)"/>
        </clipPath>
        <clipPath id="clip3_0_3">
            <rect width="275.313" height="48.4435" fill="white" transform="translate(120.207 0.121094)"/>
        </clipPath>
        <clipPath id="clip4_0_3">
            <rect width="275.313" height="48.4435" fill="white" transform="translate(120.207 0.121094)"/>
        </clipPath>
        <clipPath id="clip5_0_3">
            <rect width="275.313" height="48.4435" fill="white" transform="translate(120.207 0.121094)"/>
        </clipPath>
        <clipPath id="clip6_0_3">
            <rect width="92.9658" height="48.4435" fill="white" transform="translate(0 0.121094)"/>
        </clipPath>
        <clipPath id="clip7_0_3">
            <rect width="92.9658" height="48.4435" fill="white" transform="translate(0 0.121094)"/>
        </clipPath>
    </defs>
</svg>
