<?xml version="1.0" standalone="no"?>
<!DOCTYPE svg PUBLIC "-//W3C//DTD SVG 20010904//EN"
 "http://www.w3.org/TR/2001/REC-SVG-20010904/DTD/svg10.dtd">
<svg version="1.0" xmlns="http://www.w3.org/2000/svg"
 width="530.000000pt" height="530.000000pt" viewBox="0 0 530.000000 530.000000"
 preserveAspectRatio="xMidYMid meet">
<metadata>
Created by potrace 1.14, written by Peter Selinger 2001-2017
</metadata>
<g transform="translate(0.000000,530.000000) scale(0.100000,-0.100000)"
fill="#000000" stroke="none">
<path d="M510 3759 c-36 -22 -64 -45 -62 -52 2 -6 12 -21 23 -33 25 -27 24
-34 -5 -34 -18 0 -27 -8 -35 -30 -5 -16 -8 -31 -5 -31 16 -5 26 -7 44 -8 28
-2 25 -12 -15 -41 -22 -16 -33 -31 -29 -42 3 -9 7 -26 9 -38 6 -30 24 -50 46
-50 33 0 28 -16 -18 -53 -25 -20 -42 -37 -38 -37 4 0 63 29 132 65 l125 65 70
-44 c39 -25 73 -46 77 -48 8 -4 101 -158 101 -168 0 -4 7 -13 15 -20 12 -10
15 -36 15 -114 l0 -101 49 -90 c28 -49 74 -126 103 -170 l53 -80 85 -31 c111
-40 122 -46 161 -96 41 -53 47 -57 70 -51 26 7 24 -5 -7 -50 l-26 -38 24 -96
c12 -53 28 -101 34 -107 6 -6 26 -25 46 -42 19 -17 37 -35 41 -40 3 -6 -3 -46
-14 -90 -11 -43 -22 -88 -25 -99 -2 -11 -19 -84 -39 -163 -19 -78 -35 -148
-35 -156 0 -24 42 -116 54 -117 6 0 18 -2 26 -4 8 -2 31 -7 50 -11 l34 -7 -37
38 c-21 21 -36 41 -35 44 72 154 94 185 183 260 129 110 141 124 149 169 6 40
6 41 59 47 l53 7 52 104 c29 57 52 109 52 114 0 6 -41 29 -91 52 -88 42 -91
44 -102 87 -10 38 -22 52 -83 97 -78 58 -83 59 -208 69 -83 7 -85 6 -101 -19
-23 -35 -55 -22 -70 30 -9 34 -15 39 -42 42 l-32 3 14 39 c13 37 13 38 -12 43
-16 3 -34 -3 -53 -19 l-28 -24 -22 27 c-12 15 -18 33 -14 42 3 9 9 25 12 36 9
35 22 43 75 50 29 4 60 9 69 10 12 3 20 -7 28 -31 6 -18 16 -36 21 -40 17 -10
38 16 33 40 -4 23 42 101 94 160 11 14 83 55 159 92 76 37 140 68 142 70 2 2
-22 62 -54 133 l-58 130 -28 -14 c-31 -17 -31 -16 -49 40 -17 55 -25 63 -63
60 -17 -2 -39 -3 -48 -4 -13 -1 -18 -16 -23 -63 -19 -185 -21 -186 -132 -69
l-81 85 16 41 c8 22 19 43 24 46 5 4 43 12 83 19 l74 11 0 104 0 103 -47 -3
c-27 -3 -70 -7 -96 -11 -27 -3 -67 -7 -90 -9 -43 -3 -158 -16 -167 -19 -3 0
-54 28 -114 63 -91 54 -110 62 -120 50 -7 -8 -28 -29 -48 -47 l-35 -33 -127
70 c-69 39 -132 71 -138 71 -7 -1 -42 -19 -78 -41z"/>
<path d="M4029 3786 c-2 -2 -35 -7 -74 -11 -70 -7 -104 -10 -180 -20 -22 -2
-71 -7 -110 -10 -38 -3 -81 -8 -95 -10 -14 -2 -56 -7 -95 -10 -38 -4 -77 -8
-85 -10 -21 -6 -188 -19 -235 -19 -37 0 -110 10 -145 19 -8 2 -31 7 -50 10
-19 3 -47 8 -61 11 -18 3 -43 -5 -81 -27 -46 -26 -57 -39 -74 -82 -10 -27 -31
-59 -46 -70 -24 -18 -28 -28 -28 -69 0 -57 14 -67 59 -44 l31 16 11 -45 c9
-34 16 -45 26 -41 8 3 19 6 24 6 5 0 19 21 30 47 19 45 19 50 4 75 -15 25 -15
30 1 60 21 43 44 68 60 68 11 0 11 -5 1 -27 -6 -16 -17 -31 -24 -36 -9 -5 -7
-17 5 -47 14 -32 21 -38 37 -33 32 10 48 9 52 -4 2 -6 -10 -14 -27 -18 -29 -6
-31 -9 -25 -37 6 -27 5 -29 -14 -23 -17 5 -23 0 -37 -34 -16 -40 -18 -41 -63
-41 -54 0 -66 6 -76 38 -7 23 -7 23 -21 4 -8 -11 -11 -27 -8 -36 4 -11 1 -16
-11 -16 -9 0 -34 -18 -55 -40 -21 -22 -43 -40 -49 -40 -5 0 -22 -5 -36 -10
l-27 -10 26 -46 c14 -26 26 -50 26 -54 0 -4 -24 -6 -54 -3 l-53 5 2 -56 c1
-31 4 -58 6 -60 2 -2 23 -6 46 -9 42 -4 44 -3 70 40 19 30 44 53 75 69 l47 24
37 -48 c21 -26 42 -51 46 -56 5 -6 14 -2 23 10 20 26 20 26 -20 52 -21 13 -35
30 -35 42 0 26 4 25 51 -7 25 -18 39 -36 39 -50 0 -26 35 -89 43 -76 2 4 7 20
11 35 7 33 25 29 47 -11 13 -22 26 -29 59 -34 51 -7 53 -8 45 -40 -10 -40 -41
-47 -115 -25 l-65 18 -20 -24 -20 -25 -47 30 c-33 21 -49 40 -53 60 -6 26 -10
29 -33 25 -33 -7 -160 -28 -184 -30 -20 -3 -138 -143 -139 -166 -2 -32 -8 -97
-14 -134 -5 -37 -3 -41 56 -97 68 -64 61 -62 192 -50 50 4 81 3 86 -4 5 -5 21
-49 36 -98 27 -84 27 -100 10 -177 -5 -24 2 -49 30 -115 8 -16 23 -55 35 -85
31 -79 32 -79 91 -66 59 14 67 23 129 144 25 49 56 94 76 110 33 26 34 29 28
80 -3 29 -7 62 -9 74 -3 14 12 36 54 77 46 44 62 67 74 111 9 30 15 56 13 58
-2 1 -28 -8 -57 -22 -37 -17 -55 -21 -58 -13 -2 7 -28 67 -57 135 -30 69 -47
122 -41 122 7 0 37 -48 67 -108 30 -59 55 -109 56 -110 4 -6 214 119 214 127
0 4 -14 17 -31 30 -26 19 -35 21 -61 12 -17 -6 -32 -10 -32 -9 -35 76 -36 79
-21 84 8 3 27 -3 43 -15 17 -12 60 -25 103 -32 69 -10 77 -14 115 -56 26 -27
52 -72 69 -116 15 -40 31 -75 34 -80 12 -13 51 38 53 71 3 29 39 62 125 115 8
5 21 -9 38 -44 21 -40 30 -50 46 -46 15 4 19 0 20 -21 1 -49 10 -85 29 -123
l20 -37 -48 26 -47 26 40 -55 c55 -77 104 -118 151 -124 22 -4 54 -10 72 -15
54 -14 26 7 -42 31 l-64 23 -12 56 c-7 31 -25 71 -41 91 -25 32 -40 89 -23 89
3 0 17 -13 31 -30 13 -16 28 -30 31 -30 4 0 20 12 35 26 28 24 28 26 13 49
-47 73 -46 69 -31 89 15 20 30 24 102 25 40 1 43 3 73 56 l32 55 -21 62 -21
62 26 27 27 28 19 -24 c11 -14 22 -41 25 -60 6 -39 10 -41 36 -21 15 11 16 20
9 48 -7 26 -4 39 12 65 19 29 39 38 77 35 3 0 22 47 42 106 36 101 37 107 20
119 -45 31 -45 32 -1 75 41 39 45 41 101 39 54 -2 63 1 110 37 29 22 67 42 85
44 17 3 32 4 32 3 0 -1 -27 -35 -59 -74 -58 -71 -59 -74 -57 -132 0 -32 4 -59
7 -59 4 0 13 10 22 23 8 12 26 35 40 51 20 23 26 39 24 70 l-2 40 55 16 c30 9
80 31 111 49 l57 32 -16 49 c-17 53 -17 53 -117 65 -27 3 -75 10 -105 15 -30
5 -77 12 -105 15 -83 10 -117 15 -180 25 -33 5 -145 22 -250 36 -104 14 -193
28 -196 30 -3 2 -8 2 -10 0z m-724 -646 c-15 -16 -15 -21 -2 -42 8 -12 17 -40
20 -61 l6 -38 -40 3 c-38 2 -39 3 -33 33 3 19 -1 47 -10 68 -16 39 -17 37 39
68 26 14 30 15 33 2 2 -8 -4 -23 -13 -33z m-204 -6 c56 -30 67 -39 60 -52 -7
-13 -27 -17 -88 -18 -74 0 -93 6 -93 31 0 13 38 75 46 75 3 0 37 -16 75 -36z"/>
<path d="M1910 3669 c-25 -27 -43 -57 -42 -66 2 -9 17 -51 34 -92 17 -42 31
-80 33 -86 1 -5 7 -23 14 -40 6 -16 17 -43 23 -60 15 -40 18 -43 51 -49 26 -5
27 -3 27 40 0 57 0 56 27 77 13 10 21 22 19 26 -3 4 6 30 18 58 l24 50 -35 63
c-44 82 -69 116 -85 118 -7 1 -24 4 -38 6 -20 5 -33 -4 -70 -45z"/>
<path d="M2533 3567 c-15 -7 -23 -19 -23 -35 0 -14 -9 -35 -19 -46 -11 -12
-22 -36 -24 -53 -5 -30 -3 -33 22 -33 20 0 30 7 38 28 11 26 11 26 12 -15 1
-24 3 -43 6 -43 15 0 75 36 80 48 5 14 -12 55 -50 123 -18 32 -23 35 -42 26z"/>
<path d="M4515 3262 c-6 -4 -12 -34 -13 -67 -3 -84 -50 -183 -106 -223 -28
-21 -42 -38 -44 -56 l-2 -27 48 28 c100 57 107 64 109 113 2 33 9 50 28 66
l26 22 -21 15 c-19 13 -20 19 -11 55 12 42 3 86 -14 74z"/>
<path d="M4155 2541 c-94 -52 -96 -55 -90 -85 7 -37 4 -35 56 -42 l44 -6 22
66 c25 77 16 94 -32 67z"/>
<path d="M4387 2461 l-28 -6 48 -47 c52 -50 76 -59 110 -40 13 7 24 8 28 3 3
-6 18 -16 34 -24 l29 -15 -16 34 c-13 25 -34 41 -92 68 -42 20 -78 35 -80 35
-3 -1 -18 -4 -33 -8z"/>
<path d="M4286 2277 c-38 -35 -78 -60 -113 -72 -60 -21 -63 -28 -39 -127 8
-33 9 -62 4 -72 -19 -34 54 -44 126 -17 14 6 26 9 26 6 0 -2 13 1 30 6 24 9
35 7 62 -9 24 -15 38 -18 50 -11 13 7 19 3 28 -25 9 -29 18 -36 56 -45 40 -10
48 -9 75 9 31 23 32 26 53 137 l13 72 -48 48 c-27 26 -61 72 -76 101 l-28 54
-8 -41 c-9 -44 -12 -46 -52 -31 -22 8 -26 15 -23 35 3 14 5 25 4 26 0 0 -19 2
-41 5 -37 4 -44 1 -99 -49z"/>
<path d="M3227 2283 c-35 -27 -36 -30 -37 -90 0 -35 4 -63 9 -63 5 0 15 -2 23
-5 19 -7 63 132 51 163 l-9 23 -37 -28z"/>
<path d="M4918 1922 c4 -47 3 -50 -40 -88 -63 -55 -66 -64 -25 -64 32 0 38 6
78 66 24 37 49 73 57 80 11 12 11 14 -1 14 -8 0 -26 9 -40 20 -14 11 -27 20
-30 20 -2 0 -2 -22 1 -48z"/>
</g>
</svg>
